<svg width="28" height="13" viewBox="0 0 28 13" fill="none" xmlns="http://www.w3.org/2000/svg">
<g clip-path="url(#clip0_410_44)">
<path d="M2.04 8.34078C2.04 9.04478 2.224 9.39678 2.592 9.39678C2.784 9.39678 2.96 9.33278 3.12 9.20478V6.20478C3.12 5.42078 2.976 4.97678 2.688 4.87278C2.552 4.82478 2.336 4.80078 2.04 4.80078V8.34078ZM4.572 9.38478C4.572 9.46478 4.128 9.67278 3.24 10.0088C2.36 10.3368 1.82 10.5008 1.62 10.5008C1.42 10.5008 1.2 10.3208 0.959995 9.96078C0.719995 9.59278 0.599995 9.18878 0.599995 8.74878V3.74478C0.599995 3.52878 0.563995 3.37678 0.491995 3.28878C0.419995 3.19278 0.295995 3.14478 0.119995 3.14478V2.80878C1.16 2.26478 2.088 0.480001 2.904 0L3.096 1.65678C3.016 1.69678 2.904 1.77678 2.76 1.89678C2.616 2.00878 2.496 2.12478 2.4 2.24478C2.16 2.54878 2.04 2.89278 2.04 3.27678V4.29678C2.864 3.87278 3.344 3.66078 3.48 3.66078C3.688 3.66078 3.92 3.82478 4.176 4.15278C4.44 4.48078 4.572 4.82878 4.572 5.19678V9.38478ZM5.75625 8.74878V4.76478C5.75625 4.70878 6.21225 4.51278 7.12425 4.17678C8.03625 3.83278 8.56025 3.66078 8.69625 3.66078C8.83225 3.66078 9.03625 3.82478 9.30825 4.15278C9.58825 4.48078 9.72824 4.77678 9.72824 5.04078V9.38478C9.72824 9.44878 9.28825 9.65278 8.40825 9.99678C7.53625 10.3328 7.00025 10.5008 6.80025 10.5008C6.60825 10.5008 6.38425 10.3288 6.12825 9.98478C5.88025 9.64078 5.75625 9.22878 5.75625 8.74878ZM7.80825 9.39678C7.96025 9.39678 8.11625 9.33278 8.27625 9.20478V5.66478C8.27625 5.07278 8.07225 4.77678 7.66425 4.77678C7.50425 4.77678 7.34825 4.83678 7.19625 4.95678V8.50878C7.19625 9.10078 7.40025 9.39678 7.80825 9.39678ZM12.3642 8.34078C12.3642 9.04478 12.5482 9.39678 12.9162 9.39678C13.1082 9.39678 13.2842 9.33278 13.4442 9.20478V6.20478C13.4442 5.42078 13.3002 4.97678 13.0122 4.87278C12.8762 4.82478 12.6602 4.80078 12.3642 4.80078V8.34078ZM14.8962 9.38478C14.8962 9.46478 14.4522 9.67278 13.5642 10.0088C12.6842 10.3368 12.1442 10.5008 11.9442 10.5008C11.7442 10.5008 11.5242 10.3208 11.2842 9.96078C11.0442 9.59278 10.9242 9.18878 10.9242 8.74878V3.74478C10.9242 3.52878 10.8882 3.37678 10.8162 3.28878C10.7442 3.19278 10.6202 3.14478 10.4442 3.14478V2.80878C11.4842 2.26478 12.4122 0.480001 13.2282 0L13.4202 1.65678C13.3402 1.69678 13.2282 1.77678 13.0842 1.89678C12.9402 2.00878 12.8202 2.12478 12.7242 2.24478C12.4842 2.54878 12.3642 2.89278 12.3642 3.27678V4.29678C13.1882 3.87278 13.6682 3.66078 13.8042 3.66078C14.0122 3.66078 14.2442 3.82478 14.5002 4.15278C14.7642 4.48078 14.8962 4.82878 14.8962 5.19678V9.38478ZM17.5205 8.34078C17.5205 9.04478 17.7045 9.39678 18.0725 9.39678C18.2645 9.39678 18.4405 9.33278 18.6005 9.20478V6.20478C18.6005 5.42078 18.4565 4.97678 18.1685 4.87278C18.0325 4.82478 17.8165 4.80078 17.5205 4.80078V8.34078ZM20.0525 9.38478C20.0525 9.46478 19.6085 9.67278 18.7205 10.0088C17.8405 10.3368 17.3005 10.5008 17.1005 10.5008C16.9005 10.5008 16.6805 10.3208 16.4405 9.96078C16.2005 9.59278 16.0805 9.18878 16.0805 8.74878V3.74478C16.0805 3.52878 16.0445 3.37678 15.9725 3.28878C15.9005 3.19278 15.7765 3.14478 15.6005 3.14478V2.80878C16.6405 2.26478 17.5685 0.480001 18.3845 0L18.5765 1.65678C18.4965 1.69678 18.3845 1.77678 18.2405 1.89678C18.0965 2.00878 17.9765 2.12478 17.8805 2.24478C17.6405 2.54878 17.5205 2.89278 17.5205 3.27678V4.29678C18.3445 3.87278 18.8245 3.66078 18.9605 3.66078C19.1685 3.66078 19.4005 3.82478 19.6565 4.15278C19.9205 4.48078 20.0525 4.82878 20.0525 5.19678V9.38478ZM25.2087 4.46478V9.22878C25.2087 9.53278 25.0727 9.96478 24.8007 10.5248C24.5287 11.0928 24.2407 11.5888 23.9367 12.0128C23.6327 12.4448 23.4247 12.6608 23.3127 12.6608C23.1127 12.6608 22.8447 12.6008 22.5087 12.4808C22.1727 12.3608 21.8847 12.2408 21.6447 12.1208L21.2967 11.9408V11.5808H21.7047C22.0167 11.5808 22.3727 11.4008 22.7727 11.0408C23.1727 10.6888 23.5047 10.2168 23.7687 9.62478C22.8647 10.0488 22.3447 10.2608 22.2087 10.2608C21.9607 10.2608 21.7367 10.1048 21.5367 9.79278C21.3447 9.47278 21.2487 9.11678 21.2487 8.72478V5.42478C21.2487 4.98478 21.0527 4.72478 20.6607 4.64478V4.38078L21.9687 3.64878C22.1447 3.72078 22.3087 3.84078 22.4607 4.00878C22.6127 4.16878 22.6887 4.32078 22.6887 4.46478V7.71678C22.6887 8.27678 22.7767 8.65278 22.9527 8.84478C23.1287 9.02878 23.4007 9.12078 23.7687 9.12078V5.42478C23.7687 4.93678 23.6047 4.66078 23.2767 4.59678V4.33278L24.4887 3.64878C24.6647 3.72078 24.8287 3.84078 24.9807 4.00878C25.1327 4.16878 25.2087 4.32078 25.2087 4.46478ZM26.4047 9.73278V9.00078C26.4047 8.97678 26.5687 8.90478 26.8967 8.78478C27.2327 8.65678 27.4247 8.59278 27.4727 8.59278C27.5287 8.59278 27.6047 8.66078 27.7007 8.79678C27.8047 8.93278 27.8567 9.07278 27.8567 9.21678V10.0928C27.8567 10.1168 27.6967 10.1928 27.3767 10.3208C27.0567 10.4408 26.8607 10.5008 26.7887 10.5008C26.7167 10.5008 26.6327 10.4328 26.5367 10.2968C26.4487 10.1528 26.4047 9.96478 26.4047 9.73278Z" fill="white"/>
</g>
<defs>
<clipPath id="clip0_410_44">
<rect width="28" height="13" fill="white"/>
</clipPath>
</defs>
</svg>
