<svg width="13" height="13" viewBox="0 0 13 13" fill="none" xmlns="http://www.w3.org/2000/svg">
<path d="M2.48421 9.88001C2.48421 10.584 2.66821 10.936 3.03621 10.936C3.22821 10.936 3.40421 10.872 3.56421 10.744V7.74401C3.56421 6.96001 3.42021 6.51601 3.13221 6.41201C2.99621 6.36401 2.78021 6.34001 2.48421 6.34001V9.88001ZM5.01621 10.924C5.01621 11.004 4.57221 11.212 3.68421 11.548C2.80421 11.876 2.26421 12.04 2.06421 12.04C1.86421 12.04 1.64421 11.86 1.40421 11.5C1.16421 11.132 1.04421 10.728 1.04421 10.288V5.28401C1.04421 5.06801 1.00821 4.91601 0.936209 4.82801C0.864209 4.73201 0.740209 4.68401 0.564209 4.68401V4.34801C1.60421 3.80401 2.72412 1.24001 3.54012 0.76001L3.54021 3.19601C3.46021 3.23601 3.34821 3.31601 3.20421 3.43601C3.06021 3.54801 2.94021 3.66401 2.84421 3.78401C2.60421 4.08801 2.48421 4.43201 2.48421 4.81601V5.83601C3.30821 5.41201 3.78821 5.20001 3.92421 5.20001C4.13221 5.20001 4.36421 5.36401 4.62021 5.69201C4.88421 6.02001 5.01621 6.36801 5.01621 6.73601V10.924Z" fill="black"/>
<path d="M5.75663 8.24801V1.86401C5.75663 1.80801 6.21263 1.61201 7.12463 1.27601C8.03663 0.93201 8.56063 0.76001 8.69663 0.76001C8.83263 0.76001 9.03663 0.92401 9.30863 1.25201C9.58863 1.58001 9.72863 1.87601 9.72863 2.14001V8.88401C9.72863 8.94801 9.40463 9.10801 8.75663 9.36401C9.26063 10.436 9.80863 10.972 10.4006 10.972V11.32C9.68863 11.8 9.21663 12.04 8.98463 12.04C8.66463 12.04 8.18463 11.296 7.54463 9.80801C7.18463 9.93601 6.94863 10 6.83663 10C6.62063 10 6.38463 9.82801 6.12863 9.48401C5.88063 9.14001 5.75663 8.72801 5.75663 8.24801ZM7.80863 8.89601C7.96063 8.89601 8.11663 8.83201 8.27663 8.70401V2.76401C8.27663 2.17201 8.07263 1.87601 7.66463 1.87601C7.50463 1.87601 7.34863 1.93601 7.19663 2.05601V8.00801C7.19663 8.60001 7.40063 8.89601 7.80863 8.89601Z" fill="black"/>
<path d="M11.0566 11.272V10.54C11.0566 10.516 11.2206 10.444 11.5486 10.324C11.8846 10.196 12.0766 10.132 12.1246 10.132C12.1806 10.132 12.2566 10.2 12.3526 10.336C12.4566 10.472 12.5086 10.612 12.5086 10.756V11.632C12.5086 11.656 12.3486 11.732 12.0286 11.86C11.7086 11.98 11.5126 12.04 11.4406 12.04C11.3686 12.04 11.2846 11.972 11.1886 11.836C11.1006 11.692 11.0566 11.504 11.0566 11.272Z" fill="black"/>
</svg>
