<svg width="13" height="13" viewBox="0 0 13 13" fill="none" xmlns="http://www.w3.org/2000/svg">
<path d="M2.03991 1.60001C2.94391 1.06401 3.42791 0.79601 3.49191 0.79601C3.56391 0.79601 3.67991 0.86001 3.83991 0.98801C3.99991 1.10801 4.15991 1.28001 4.31991 1.50401C4.47991 1.72001 4.55991 1.93201 4.55991 2.14001V4.15601C4.55991 4.34001 4.23191 4.57201 3.57591 4.85201C3.74391 4.90001 3.95191 5.08001 4.19991 5.39201C4.44791 5.69601 4.57191 5.97201 4.57191 6.22001V8.88401C4.57191 8.94801 4.13191 9.15201 3.25191 9.49601C2.37991 9.83201 1.84391 10 1.64391 10C1.45191 10 1.256 12.384 1 12.04C0.752 11.696 0.59991 8.72801 0.59991 8.24801V2.48801C0.59991 2.05601 0.43591 1.80401 0.10791 1.73201V1.46801L1.31991 0.78401C1.49591 0.85601 1.65991 0.97601 1.81191 1.14401C1.96391 1.30401 2.03991 1.45601 2.03991 1.60001ZM2.65191 8.89601C2.80391 8.89601 2.95991 8.83201 3.11991 8.70401V6.84401C3.11991 6.25201 2.91591 5.95601 2.50791 5.95601C2.34791 5.95601 2.19191 6.01601 2.03991 6.13601V8.00801C2.03991 8.60001 2.24391 8.89601 2.65191 8.89601ZM3.11991 2.80001C3.11991 2.58401 3.07191 2.40001 2.97591 2.24801C2.88791 2.08801 2.75591 2.00801 2.57991 2.00801C2.41191 2.00801 2.23191 2.12801 2.03991 2.36801V4.85201C2.75991 4.65201 3.11991 4.22001 3.11991 3.55601V2.80001Z" fill="black"/>
<path d="M5.65069 8.24801V1.86401C5.65069 1.80801 6.10669 1.61201 7.01869 1.27601C7.93069 0.93201 8.45469 0.76001 8.59069 0.76001C8.72669 0.76001 8.93069 0.92401 9.20269 1.25201C9.48269 1.58001 9.62269 1.87601 9.62269 2.14001V8.88401C9.62269 8.94801 9.29869 9.10801 8.65069 9.36401C9.15469 10.436 9.70269 10.972 10.2947 10.972V11.32C9.58269 11.8 9.11069 12.04 8.87869 12.04C8.55869 12.04 8.07869 11.296 7.43869 9.80801C7.07869 9.93601 6.84269 10 6.73069 10C6.51469 10 6.27869 9.82801 6.02269 9.48401C5.77469 9.14001 5.65069 8.72801 5.65069 8.24801ZM7.70269 8.89601C7.85469 8.89601 8.01069 8.83201 8.17069 8.70401V2.76401C8.17069 2.17201 7.96669 1.87601 7.55869 1.87601C7.39869 1.87601 7.24269 1.93601 7.09069 2.05601V8.00801C7.09069 8.60001 7.29469 8.89601 7.70269 8.89601Z" fill="black"/>
<path d="M10.8187 9.23201V8.50001C10.8187 8.47601 10.9827 8.40401 11.3107 8.28401C11.6467 8.15601 11.8387 8.09201 11.8867 8.09201C11.9427 8.09201 12.0187 8.16001 12.1147 8.29601C12.2187 8.43201 12.2707 8.57201 12.2707 8.71601V9.59201C12.2707 9.61601 12.1107 9.69201 11.7907 9.82001C11.4707 9.94001 11.2747 10 11.2027 10C11.1307 10 11.0467 9.93201 10.9507 9.79601C10.8627 9.65201 10.8187 9.46401 10.8187 9.23201Z" fill="black"/>
</svg>
